<?xml version="1.0" encoding="UTF-8"?><svg xmlns="http://www.w3.org/2000/svg" xmlns:xlink="http://www.w3.org/1999/xlink" color-interpolation="auto" color-rendering="auto" fill="rgb(0,0,0)" fill-opacity="0" font-family="'Dialog'" font-size="12px" font-style="normal" font-weight="normal" height="468" image-rendering="auto" shape-rendering="auto" stroke="rgb(0,0,0)" stroke-dasharray="none" stroke-dashoffset="0" stroke-linecap="square" stroke-linejoin="miter" stroke-miterlimit="10" stroke-opacity="0" stroke-width="1" text-rendering="auto" viewbox="0 0 711 468" width="711"><!--Generated by the Batik Graphics2D SVG Generator--><defs id="genericDefs"/><g><defs id="defs1"><clipPath clipPathUnits="userSpaceOnUse" id="199ebdab-3e83-44e2-b147-c40ee5caa3ad"><path d="M-7 -7 L81 -7 L81 473 L-7 473 L-7 -7 Z"/></clipPath><clipPath clipPathUnits="userSpaceOnUse" id="c42a5d88-6fb6-4f89-94d4-1921590acab1"><path d="M-7 -7 L81 -7 L81 473 L-7 473 L-7 -7 Z"/></clipPath><clipPath clipPathUnits="userSpaceOnUse" id="700fa487-3b36-4f94-b2d4-8497f0f9165a"><path d="M-7 -7 L71 -7 L71 473 L-7 473 L-7 -7 Z"/></clipPath><clipPath clipPathUnits="userSpaceOnUse" id="ccf46c22-dee0-4e9c-8ef4-d640bb6171b8"><path d="M-7 -7 L71 -7 L71 473 L-7 473 L-7 -7 Z"/></clipPath><clipPath clipPathUnits="userSpaceOnUse" id="c5a906e5-8617-4870-b53e-abf6fe480c99"><path d="M-7 -7 L19 -7 L19 266 L-7 266 L-7 -7 Z"/></clipPath><clipPath clipPathUnits="userSpaceOnUse" id="c2bfe9fe-25df-49fe-8381-0978775e92e8"><path d="M-7 -7 L19 -7 L19 266 L-7 266 L-7 -7 Z"/></clipPath><clipPath clipPathUnits="userSpaceOnUse" id="c41d3895-d735-47ae-b8f8-a70f9f514c4d"><path d="M-7 -7 L705 -7 L705 210 L-7 210 L-7 -7 Z"/></clipPath><clipPath clipPathUnits="userSpaceOnUse" id="363e564b-0f9d-42f3-8727-0852ef2fb8f7"><path d="M-7 -7 L-7 210 L705 210 L705 -7 Z"/></clipPath><clipPath clipPathUnits="userSpaceOnUse" id="2bbff9a3-a827-492f-b679-1d9c2fcadeac"><path d="M-7 -7 L705 -7 L705 210 L-7 210 L-7 -7 Z"/></clipPath><clipPath clipPathUnits="userSpaceOnUse" id="27513d0e-3411-409a-a4d6-d0ee5d73e499"><path d="M0 0 L0 18 L23 18 L23 0 Z"/></clipPath><clipPath clipPathUnits="userSpaceOnUse" id="34e27137-2108-4cd7-a458-0c05c9f83c02"><path d="M-7 -7 L705 -7 L705 124 L-7 124 L-7 -7 Z"/></clipPath><clipPath clipPathUnits="userSpaceOnUse" id="29549cad-6689-46be-8670-be2b76cf0638"><path d="M-7 -7 L705 -7 L705 124 L-7 124 L-7 -7 Z"/></clipPath><clipPath clipPathUnits="userSpaceOnUse" id="a8946693-398d-4c52-b4df-8aae189ffb8d"><path d="M0 0 L0 15 L47 15 L47 0 Z"/></clipPath><clipPath clipPathUnits="userSpaceOnUse" id="29ca60aa-fcf3-4c42-a097-6d071a16bdfa"><path d="M0 0 L0 4 L694 4 L694 0 Z"/></clipPath><clipPath clipPathUnits="userSpaceOnUse" id="376a3054-e687-41e5-bf71-2b2947645a74"><path d="M-7 -7 L705 -7 L705 79 L-7 79 L-7 -7 Z"/></clipPath><clipPath clipPathUnits="userSpaceOnUse" id="58a8af8c-7fcf-4d80-93e7-9b4d28089c56"><path d="M-7 -7 L705 -7 L705 79 L-7 79 L-7 -7 Z"/></clipPath><clipPath clipPathUnits="userSpaceOnUse" id="738c66d1-f4d0-4eb4-bba9-f3892eff1717"><path d="M-7 -7 L705 -7 L705 79 L-7 79 L-7 -7 Z"/></clipPath><clipPath clipPathUnits="userSpaceOnUse" id="a0bc27f8-b82e-454b-b3ee-5243f7acae12"><path d="M0 0 L0 15 L224 15 L224 0 Z"/></clipPath><clipPath clipPathUnits="userSpaceOnUse" id="972a803c-3024-41bd-bbd5-7ffe120055b4"><path d="M0 0 L0 4 L694 4 L694 0 Z"/></clipPath><clipPath clipPathUnits="userSpaceOnUse" id="9e16648b-1a4b-472e-adaf-8dd1e8d15a6d"><path d="M-49 -15 L98 -15 L98 30 L-49 30 L-49 -15 Z"/></clipPath><clipPath clipPathUnits="userSpaceOnUse" id="9670f62c-0dbb-4277-a6e4-a552e7b91280"><path d="M-70 -15 L140 -15 L140 30 L-70 30 L-70 -15 Z"/></clipPath><clipPath clipPathUnits="userSpaceOnUse" id="e8ec5602-5919-48d6-830a-b1799ff916e6"><path d="M0 0 L675 0 L675 104 L0 104 L0 0 Z"/></clipPath><clipPath clipPathUnits="userSpaceOnUse" id="e6217672-a6f3-4fd9-8e3b-f85f3e704a20"><path d="M498 30 L498 45 L165 45 L165 30 ZM0 0 L0 104 L675 104 L675 0 Z"/></clipPath><clipPath clipPathUnits="userSpaceOnUse" id="d2b990f5-3260-43b3-a777-1f3b6c0885c7"><path d="M0 0 L675 0 L675 104 L0 104 L0 0 Z"/></clipPath><clipPath clipPathUnits="userSpaceOnUse" id="ed764ec2-d282-436a-9c97-dda1be63a529"><path d="M617 30 L617 45 L47 45 L47 30 ZM0 0 L0 104 L223 104 L223 101 L446 101 L446 104 L675 104 L675 0 Z"/></clipPath><clipPath clipPathUnits="userSpaceOnUse" id="ff44d70f-0169-48c3-8a10-46dd0c7cc5a9"><path d="M0 0 L675 0 L675 104 L0 104 L0 0 Z"/></clipPath><clipPath clipPathUnits="userSpaceOnUse" id="c1010edf-d791-4cf8-bdf4-3d1949006974"><path d="M446 30 L446 45 L223 45 L223 30 ZM0 0 L0 104 L675 104 L675 0 Z"/></clipPath><clipPath clipPathUnits="userSpaceOnUse" id="1b38b6a0-703b-4741-88d8-8c5a95ef60cf"><path d="M-223 -15 L446 -15 L446 30 L-223 30 L-223 -15 Z"/></clipPath><clipPath clipPathUnits="userSpaceOnUse" id="1da2c1da-14a4-4a0b-aa68-3baa6b1c10fb"><path d="M-570 -15 L1140 -15 L1140 30 L-570 30 L-570 -15 Z"/></clipPath><clipPath clipPathUnits="userSpaceOnUse" id="be654241-3d8e-4fa1-a335-76fe22548d48"><path d="M-333 -15 L666 -15 L666 30 L-333 30 L-333 -15 Z"/></clipPath></defs><g fill="white" fill-opacity="1" stroke="white" stroke-opacity="1" text-rendering="geometricPrecision"><rect height="468" stroke="none" width="711" x="0" y="0"/></g><g data="{&quot;name&quot;:&quot;Système&quot;,&quot;modelType&quot;:&quot;InteractionLifeLine&quot;}" hyper="" model-id="shape-O7zgnwWAUAAAbRou" style="pointer-events: auto; cursor: pointer;"><g fill="rgb(122,207,245)" fill-opacity="1" font-family="sans-serif" font-size="11px" image-rendering="optimizeQuality" stroke="rgb(122,207,245)" stroke-opacity="1" text-rendering="geometricPrecision" transform="translate(637,2)"><rect clip-path="url(#c42a5d88-6fb6-4f89-94d4-1921590acab1)" height="35" stroke="none" width="69" x="0" y="0"/></g><g fill="black" fill-opacity="1" font-family="sans-serif" font-size="11px" image-rendering="optimizeQuality" stroke="black" stroke-linecap="butt" stroke-linejoin="round" stroke-miterlimit="0" stroke-opacity="1" text-rendering="geometricPrecision" transform="translate(637,2)"><rect clip-path="url(#c42a5d88-6fb6-4f89-94d4-1921590acab1)" fill="none" height="35" width="69" x="0" y="0"/><line clip-path="url(#c42a5d88-6fb6-4f89-94d4-1921590acab1)" fill="none" stroke-dasharray="8,3" stroke-linejoin="bevel" x1="34" x2="34" y1="35" y2="462"/></g></g><g data="{&quot;name&quot;:&quot;Client&quot;,&quot;modelType&quot;:&quot;InteractionActor&quot;}" hyper="" model-id="shape-r_t0nwWAUAAAbRyK" style="pointer-events: auto; cursor: pointer;"><g fill="rgb(122,207,245)" fill-opacity="1" font-family="sans-serif" font-size="11px" image-rendering="optimizeQuality" stroke="rgb(122,207,245)" stroke-opacity="1" text-rendering="geometricPrecision" transform="translate(63,2)"><circle clip-path="url(#ccf46c22-dee0-4e9c-8ef4-d640bb6171b8)" cx="30" cy="5" r="5" stroke="none"/><rect clip-path="url(#ccf46c22-dee0-4e9c-8ef4-d640bb6171b8)" height="411" stroke="none" width="8" x="26" y="50"/></g><g fill="black" fill-opacity="1" font-family="sans-serif" font-size="11px" image-rendering="optimizeQuality" stroke="black" stroke-linecap="butt" stroke-linejoin="round" stroke-miterlimit="0" stroke-opacity="1" text-rendering="geometricPrecision" transform="translate(63,2)"><circle clip-path="url(#ccf46c22-dee0-4e9c-8ef4-d640bb6171b8)" cx="30" cy="5" fill="none" r="5"/><rect clip-path="url(#ccf46c22-dee0-4e9c-8ef4-d640bb6171b8)" fill="none" height="411" width="8" x="26" y="50"/><line clip-path="url(#ccf46c22-dee0-4e9c-8ef4-d640bb6171b8)" fill="none" x1="30" x2="30" y1="10" y2="25"/><line clip-path="url(#ccf46c22-dee0-4e9c-8ef4-d640bb6171b8)" fill="none" x1="30" x2="21" y1="25" y2="36"/><line clip-path="url(#ccf46c22-dee0-4e9c-8ef4-d640bb6171b8)" fill="none" x1="30" x2="39" y1="25" y2="36"/><line clip-path="url(#ccf46c22-dee0-4e9c-8ef4-d640bb6171b8)" fill="none" x1="21" x2="39" y1="16" y2="16"/></g></g><g data="{&quot;name&quot;:&quot;Activation&quot;,&quot;modelType&quot;:&quot;Activation&quot;}" hyper="" model-id="shape-S.r0nwWAUAAAbRyh" style="pointer-events: auto; cursor: pointer;"><g fill="rgb(122,207,245)" fill-opacity="1" font-family="sans-serif" font-size="11px" image-rendering="optimizeQuality" stroke="rgb(122,207,245)" stroke-opacity="1" text-rendering="geometricPrecision" transform="translate(668,101)"><rect clip-path="url(#c2bfe9fe-25df-49fe-8381-0978775e92e8)" height="255" stroke="none" width="8" x="0" y="0"/></g><g fill="black" fill-opacity="1" font-family="sans-serif" font-size="11px" image-rendering="optimizeQuality" stroke="black" stroke-linecap="butt" stroke-linejoin="round" stroke-miterlimit="0" stroke-opacity="1" text-rendering="geometricPrecision" transform="translate(668,101)"><rect clip-path="url(#c2bfe9fe-25df-49fe-8381-0978775e92e8)" fill="none" height="255" width="8" x="0" y="0"/></g></g><g data="{&quot;name&quot;:&quot;au moins un voyage trouvé&quot;,&quot;modelType&quot;:&quot;CombinedFragment&quot;}" hyper="" model-id="shape-59TYnwWAUAAAbRqi" style="pointer-events: auto; cursor: pointer;"><g fill="black" fill-opacity="1" font-family="sans-serif" font-size="11px" font-weight="bold" image-rendering="optimizeQuality" stroke="black" stroke-linecap="butt" stroke-linejoin="round" stroke-miterlimit="0" stroke-opacity="1" text-rendering="geometricPrecision" transform="translate(2,200)"><rect clip-path="url(#363e564b-0f9d-42f3-8727-0852ef2fb8f7)" fill="none" height="199" width="694" x="0" y="0"/></g><g fill="white" fill-opacity="1" font-family="sans-serif" font-size="11px" font-weight="bold" image-rendering="optimizeQuality" stroke="white" stroke-opacity="1" text-rendering="geometricPrecision" transform="translate(2,200)"><path clip-path="url(#363e564b-0f9d-42f3-8727-0852ef2fb8f7)" d="M22 0 L22 9 L16 17 L0 17 L0 0 Z" stroke="none"/></g><g fill="black" fill-opacity="1" font-family="sans-serif" font-size="11px" font-weight="bold" image-rendering="optimizeQuality" stroke="black" stroke-linecap="butt" stroke-linejoin="round" stroke-miterlimit="0" stroke-opacity="1" text-rendering="geometricPrecision" transform="translate(2,200)"><path clip-path="url(#363e564b-0f9d-42f3-8727-0852ef2fb8f7)" d="M22 0 L22 9 L16 17 L0 17 L0 0 Z" fill="none"/></g></g><g fill="black" fill-opacity="1" font-family="sans-serif" font-size="11px" font-weight="bold" image-rendering="optimizeQuality" stroke="black" stroke-opacity="1" text-rendering="geometricPrecision" transform="translate(2,200)"><text clip-path="url(#27513d0e-3411-409a-a4d6-d0ee5d73e499)" stroke="none" x="5" xml:space="preserve" y="12">alt</text></g><g fill="white" fill-opacity="1" font-family="sans-serif" font-size="11px" image-rendering="optimizeQuality" stroke="white" stroke-opacity="1" text-rendering="geometricPrecision" transform="translate(30,291)"><rect clip-path="url(#a8946693-398d-4c52-b4df-8aae189ffb8d)" height="17" stroke="none" width="28" x="9" y="-1"/><text clip-path="url(#a8946693-398d-4c52-b4df-8aae189ffb8d)" fill="black" stroke="none" x="10" xml:space="preserve" y="12">[else]</text></g><g data="{&quot;name&quot;:&quot;au moins un voyage trouvé&quot;,&quot;modelType&quot;:&quot;InteractionOperand&quot;}" hyper="" model-id="shape-kDTYnwWAUAAAbRqn" style="pointer-events: auto; cursor: pointer;"><g fill="black" fill-opacity="1" font-family="sans-serif" font-size="11px" image-rendering="optimizeQuality" stroke="black" stroke-dasharray="5,2" stroke-linecap="butt" stroke-linejoin="bevel" stroke-miterlimit="0" stroke-opacity="1" text-rendering="geometricPrecision" transform="translate(2,218)"><line clip-path="url(#58a8af8c-7fcf-4d80-93e7-9b4d28089c56)" fill="none" x1="0" x2="693" y1="67" y2="67"/></g></g><g fill="white" fill-opacity="1" font-family="sans-serif" font-size="11px" image-rendering="optimizeQuality" stroke="white" stroke-opacity="1" text-rendering="geometricPrecision" transform="translate(30,223)"><rect clip-path="url(#a0bc27f8-b82e-454b-b3ee-5243f7acae12)" height="17" stroke="none" width="205" x="9" y="-1"/><text clip-path="url(#a0bc27f8-b82e-454b-b3ee-5243f7acae12)" fill="black" stroke="none" x="10" xml:space="preserve" y="12">[au moins un voyage avec une unité libre]</text></g><g fill="black" fill-opacity="1" font-family="sans-serif" font-size="11px" image-rendering="optimizeQuality" stroke="black" stroke-opacity="1" text-rendering="geometricPrecision" transform="translate(69,37)"><text clip-path="url(#9e16648b-1a4b-472e-adaf-8dd1e8d15a6d)" stroke="none" x="10" xml:space="preserve" y="12">Client</text></g><g fill="black" fill-opacity="1" font-family="sans-serif" font-size="11px" image-rendering="optimizeQuality" stroke="black" stroke-opacity="1" text-rendering="geometricPrecision" transform="translate(637,2)"><text clip-path="url(#9670f62c-0dbb-4277-a6e4-a552e7b91280)" stroke="none" x="13" xml:space="preserve" y="12">Système</text></g><g data="{&quot;name&quot;:&quot;verifierVoyages(origine, destination [0 .. 1], date, typeSection)&quot;,&quot;modelType&quot;:&quot;Message&quot;}" hyper="" model-id="connector-e.r0nwWAUAAAbRyl" style="pointer-events: auto; cursor: pointer;"><g fill="black" fill-opacity="1" font-family="sans-serif" font-size="11px" image-rendering="optimizeQuality" stroke="black" stroke-linecap="butt" stroke-linejoin="round" stroke-opacity="1" text-rendering="geometricPrecision" transform="translate(47,51)"><line clip-path="url(#e6217672-a6f3-4fd9-8e3b-f85f3e704a20)" fill="none" x1="50" x2="621" y1="50" y2="50"/><polygon clip-path="url(#e6217672-a6f3-4fd9-8e3b-f85f3e704a20)" points=" 621 50 609 44 609 56" stroke="none"/><polygon clip-path="url(#e6217672-a6f3-4fd9-8e3b-f85f3e704a20)" fill="none" points=" 621 50 609 44 609 56"/></g></g><g data="{&quot;name&quot;:&quot;listeVoyages(numero, compagnie, dateDepart, heureDepart, heureArrivee, duree, prix, nbUnitesDisponibles)&quot;,&quot;modelType&quot;:&quot;Message&quot;}" hyper="" model-id="connector-r130nwWAUAAAbRy4" style="pointer-events: auto; cursor: pointer;"><g fill="black" fill-opacity="1" font-family="sans-serif" font-size="11px" image-rendering="optimizeQuality" stroke="black" stroke-dasharray="8,3" stroke-linecap="butt" stroke-linejoin="round" stroke-miterlimit="0" stroke-opacity="1" text-rendering="geometricPrecision" transform="translate(47,223)"><line clip-path="url(#ed764ec2-d282-436a-9c97-dda1be63a529)" fill="none" x1="621" x2="50" y1="50" y2="50"/><line clip-path="url(#ed764ec2-d282-436a-9c97-dda1be63a529)" fill="none" stroke-dasharray="none" stroke-miterlimit="10" x1="50" x2="62" y1="50" y2="56"/><line clip-path="url(#ed764ec2-d282-436a-9c97-dda1be63a529)" fill="none" stroke-dasharray="none" stroke-miterlimit="10" x1="50" x2="62" y1="50" y2="44"/></g></g><g data="{&quot;name&quot;:&quot;message: \&quot;Aucun voyage disponible\&quot;&quot;,&quot;modelType&quot;:&quot;Message&quot;}" hyper="" model-id="connector-_M_0nwWAUAAAbRzP" style="pointer-events: auto; cursor: pointer;"><g fill="black" fill-opacity="1" font-family="sans-serif" font-size="11px" image-rendering="optimizeQuality" stroke="black" stroke-dasharray="8,3" stroke-linecap="butt" stroke-linejoin="round" stroke-miterlimit="0" stroke-opacity="1" text-rendering="geometricPrecision" transform="translate(47,294)"><line clip-path="url(#c1010edf-d791-4cf8-bdf4-3d1949006974)" fill="none" x1="621" x2="50" y1="50" y2="50"/><line clip-path="url(#c1010edf-d791-4cf8-bdf4-3d1949006974)" fill="none" stroke-dasharray="none" stroke-miterlimit="10" x1="50" x2="62" y1="50" y2="56"/><line clip-path="url(#c1010edf-d791-4cf8-bdf4-3d1949006974)" fill="none" stroke-dasharray="none" stroke-miterlimit="10" x1="50" x2="62" y1="50" y2="44"/></g></g><g fill="white" fill-opacity="1" font-family="sans-serif" font-size="11px" image-rendering="optimizeQuality" stroke="white" stroke-opacity="1" text-rendering="geometricPrecision" transform="translate(270,324)"><rect clip-path="url(#1b38b6a0-703b-4741-88d8-8c5a95ef60cf)" height="15" stroke="none" width="223" x="0" y="0"/><text clip-path="url(#1b38b6a0-703b-4741-88d8-8c5a95ef60cf)" fill="black" stroke="none" x="9" xml:space="preserve" y="12">1.2: message: "Aucun voyage disponible"</text></g><g fill="white" fill-opacity="1" font-family="sans-serif" font-size="11px" image-rendering="optimizeQuality" stroke="white" stroke-opacity="1" text-rendering="geometricPrecision" transform="translate(94,253)"><rect clip-path="url(#1da2c1da-14a4-4a0b-aa68-3baa6b1c10fb)" height="15" stroke="none" width="570" x="0" y="0"/><text clip-path="url(#1da2c1da-14a4-4a0b-aa68-3baa6b1c10fb)" fill="black" stroke="none" x="10" xml:space="preserve" y="12">1.1: listeVoyages(numero, compagnie, dateDepart, heureDepart, heureArrivee, duree, prix, nbUnitesDisponibles)</text></g><g fill="white" fill-opacity="1" font-family="sans-serif" font-size="11px" image-rendering="optimizeQuality" stroke="white" stroke-opacity="1" text-rendering="geometricPrecision" transform="translate(212,81)"><rect clip-path="url(#be654241-3d8e-4fa1-a335-76fe22548d48)" height="15" stroke="none" width="333" x="0" y="0"/><text clip-path="url(#be654241-3d8e-4fa1-a335-76fe22548d48)" fill="black" stroke="none" x="9" xml:space="preserve" y="12">1: verifierVoyages(origine, destination [0 .. 1], date, typeSection)</text></g><g fill="rgb(120,120,120)" fill-opacity="1" font-size="8px" image-rendering="optimizeQuality" stroke="rgb(120,120,120)" stroke-opacity="1" text-rendering="geometricPrecision"><text stroke="none" x="0" xml:space="preserve" y="10">Visual Paradigm Standard(tokyr(University of Montreal))</text></g></g></svg>